<?xml version="1.0" encoding="UTF-8"?><svg id="Layer_1" xmlns="http://www.w3.org/2000/svg" viewBox="0 0 256 256"><defs><style>.cls-1{fill:none;stroke:#007bff;stroke-linecap:round;stroke-linejoin:round;stroke-width:10px;}</style></defs><path class="cls-1" d="M145.05,178.17h78.51c5.21,0,9.44-4.2,9.44-9.39V22.39c0-5.19-4.23-9.39-9.44-9.39H122.2c-5.21,0-9.44,4.2-9.44,9.39v28.81"/><path class="cls-1" d="M152.36,125.84c0-35.53-28.96-64.33-64.68-64.33S23,90.32,23,125.84c0,19.96,9.14,37.8,23.49,49.6,1.99,4.97,3.6,11.55,3.6,20.57v26.37c0,11.39,9.28,20.62,20.73,20.62h30.55c11.45,0,20.73-9.23,20.73-20.62v-26.37c0-7.17,1.06-12.83,2.52-17.37,16.76-11.62,27.74-30.93,27.74-52.8Z"/><path class="cls-1" d="M73.45,87.58c4.44-1.59,9.23-2.45,14.23-2.45,23.26,0,42.12,18.75,42.12,41.89s-18.86,41.89-42.12,41.89-42.12-18.75-42.12-41.89c0-6.78,1.62-13.19,4.5-18.86"/><path class="cls-1" d="M79.21,103.54c2.65-.94,5.5-1.46,8.47-1.46,13.85,0,25.08,11.17,25.08,24.94s-11.23,24.94-25.08,24.94-25.08-11.17-25.08-24.94c0-4.04,.97-7.85,2.68-11.23"/><line class="cls-1" x1="133.73" y1="38.29" x2="145.79" y2="38.29"/><line class="cls-1" x1="140.77" y1="66.01" x2="145.79" y2="66.01"/><line class="cls-1" x1="160.18" y1="38.29" x2="212.03" y2="38.29"/><line class="cls-1" x1="160.18" y1="66.01" x2="212.03" y2="66.01"/><line class="cls-1" x1="163.26" y1="93.74" x2="212.03" y2="93.74"/><line class="cls-1" x1="169.43" y1="121.46" x2="212.03" y2="121.46"/><line class="cls-1" x1="167.37" y1="149.19" x2="212.03" y2="149.19"/></svg>