<?xml version="1.0" encoding="UTF-8"?><svg id="Layer_1" xmlns="http://www.w3.org/2000/svg" viewBox="0 0 256 256"><defs><style>.cls-1{fill:none;stroke:#007bff;stroke-linecap:round;stroke-linejoin:round;stroke-width:10px;}</style></defs><path class="cls-1" d="M242.67,29.95l-28.78,186.47c-.67,4.38-3.32,8.19-7.18,10.36-2.17,1.22-4.62,1.84-7.05,1.84-1.88,0-3.75-.36-5.53-1.11l-54.14-22.53-38.56,37.01c-.69,.66-1.58,1.01-2.49,1.01-.1,0-.55-.09-1.03-.68-.87-.37-1.49-1.09-1.84-1.94l-27.81-65.81-46.42-19.32c-5.05-2.11-8.48-7.3-8.82-12.37-.34-5.08,2.46-10.24,7.22-13.38L221.7,14.9c2.23-1.27,4.69-1.9,7.15-1.9,2.87,0,5.71,.85,8.14,2.53,4.58,3.12,6.92,8.58,5.68,14.43Zm-25.77,10.29L88.47,159.25l15.94,36.27"/></svg>