<?xml version="1.0" encoding="utf-8"?>
<!-- Generator: Adobe Illustrator 27.0.0, SVG Export Plug-In . SVG Version: 6.00 Build 0)  -->
<svg version="1.1" id="Layer_1" xmlns="http://www.w3.org/2000/svg" xmlns:xlink="http://www.w3.org/1999/xlink" x="0px" y="0px"
	 viewBox="0 0 1404 479" style="enable-background:new 0 0 1404 479;" xml:space="preserve">
<style type="text/css">
	.st0{fill-rule:evenodd;clip-rule:evenodd;fill:#14141E;}
	.st1{fill:#14141E;}
</style>
<path class="st0" d="M1137.3,154.6l-151,0.6c-12.2,0-17.6-15.8-7.6-22.8c0.1-0.1,0.3-0.2,0.4-0.3c14.2-9.9,32.9-9,32.9-9
	s2.5-53,52.8-53.2c24.9-0.1,45.1,42.3,45.1,42.3s33.8-0.1,39.5,26.6C1151.2,146.8,1145.6,154.6,1137.3,154.6z"/>
<path class="st1" d="M1137.3,154.6l-151,0.6c-12.2,0-17.6-15.8-7.6-22.8c0.1-0.1,0.3-0.2,0.4-0.3c14.2-9.9,32.9-9,32.9-9
	s2.5-53,52.8-53.2c24.9-0.1,45.1,42.3,45.1,42.3s33.8-0.1,39.5,26.6C1151.2,146.8,1145.6,154.6,1137.3,154.6z"/>
<path class="st1" d="M27,397.5c-4.7,0-8.6-2.9-10-7.4c-1.4-4.4,0.1-8.9,3.8-11.5l0.3-0.2c10.1-7,23.1-7.2,25.8-7.2
	c0.4-4.7,4.7-41.6,42.1-41.7c0,0,0,0,0.1,0c8.2,0,17,5.8,25.5,16.8c5.7,7.4,9.6,14.9,10.4,16.5c1.4,0,7.4,0.3,13.8,2.6
	c9.6,3.5,15.7,9.9,17.6,18.7c0.7,3.3-0.1,6.7-2.1,9.2c-1.9,2.4-4.8,3.8-8,3.8l0,0L27,397.5C27.1,397.5,27.1,397.5,27,397.5z
	 M146.1,396.5L146.1,396.5L146.1,396.5z M46.6,372.2c-3.1,0-15.4,0.4-24.9,7l-0.3,0.2c-4.1,2.9-4.4,7.2-3.4,10.3
	c1.3,4.1,4.9,6.7,9.1,6.7l119.1-0.5c2.9,0,5.4-1.2,7.2-3.4c1.9-2.3,2.6-5.4,1.9-8.4c-4.3-20.3-30.3-20.5-30.7-20.5c0,0,0,0,0,0
	c-0.2,0-0.4-0.1-0.5-0.3c-0.2-0.3-16-33-35.1-33c0,0,0,0-0.1,0c-38.7,0.1-41.1,40.9-41.1,41.3c0,0.3-0.3,0.5-0.5,0.5
	C47.4,372.3,47.1,372.2,46.6,372.2z"/>
<path class="st0" d="M103.8,238.4l202.9,0.8c16.4,0.1,23.6-21.2,10.2-30.7c-0.2-0.1-0.4-0.3-0.6-0.4c-19.1-13.2-44.2-12.1-44.2-12.1
	s-3.3-71.5-70.9-71.5c-47.8,0-60.7,56.9-60.7,56.9s-45.5-0.2-53.1,35.7C85.1,228,92.7,238.4,103.8,238.4z"/>
<path class="st1" d="M103.8,238.4l202.9,0.8c16.4,0.1,23.6-21.2,10.2-30.7c-0.2-0.1-0.4-0.3-0.6-0.4c-19.1-13.2-44.2-12.1-44.2-12.1
	s-3.3-71.5-70.9-71.5c-47.8,0-60.7,56.9-60.7,56.9s-45.5-0.2-53.1,35.7C85.1,228,92.7,238.4,103.8,238.4z"/>
<path class="st0" d="M703.5,78.8l79.9-0.3c7.1,0,10.2-9.3,4.3-13.4c-0.1-0.1-0.2-0.1-0.2-0.2c-8.3-5.7-19.3-5.1-19.3-5.1
	s-1.7-31-31.1-30.8c-26.6,0.1-37.1,26.2-40.8,40.6C695.1,74.3,698.7,78.8,703.5,78.8z"/>
<path class="st1" d="M703.5,78.8l79.9-0.3c7.1,0,10.2-9.3,4.3-13.4c-0.1-0.1-0.2-0.1-0.2-0.2c-8.3-5.7-19.3-5.1-19.3-5.1
	s-1.7-31-31.1-30.8c-26.6,0.1-37.1,26.2-40.8,40.6C695.1,74.3,698.7,78.8,703.5,78.8z"/>
<path class="st0" d="M1239.7,303.3l84.9,0.3c6.9,0,9.9-8.9,4.3-12.8c-0.1-0.1-0.2-0.1-0.2-0.2c-8-5.5-18.5-5.1-18.5-5.1
	s-1.4-29.8-29.7-29.9c-14-0.1-25.4,23.8-25.4,23.8s-19-0.1-22.2,14.9C1231.9,298.9,1235.1,303.3,1239.7,303.3z"/>
<path class="st1" d="M1239.7,303.3l84.9,0.3c6.9,0,9.9-8.9,4.3-12.8c-0.1-0.1-0.2-0.1-0.2-0.2c-8-5.5-18.5-5.1-18.5-5.1
	s-1.4-29.8-29.7-29.9c-14-0.1-25.4,23.8-25.4,23.8s-19-0.1-22.2,14.9C1231.9,298.9,1235.1,303.3,1239.7,303.3z"/>
<path class="st0" d="M8,48.6l84.8,0.3c6.9,0,9.9-8.9,4.3-12.8C97,36.1,97,36,96.9,36c-8-5.5-18.5-5.1-18.5-5.1S77,1.1,48.7,1
	c-14-0.1-25.4,23.8-25.4,23.8s-19-0.1-22.2,14.9C0.2,44.3,3.4,48.6,8,48.6z"/>
<path class="st1" d="M8,48.6l84.8,0.3c6.9,0,9.9-8.9,4.3-12.8C97,36.1,97,36,96.9,36c-8-5.5-18.5-5.1-18.5-5.1S77,1.1,48.7,1
	c-14-0.1-25.4,23.8-25.4,23.8s-19-0.1-22.2,14.9C0.2,44.3,3.4,48.6,8,48.6z"/>
<path class="st0" d="M665.7,478h-25.6c-10,0-18.1-8.2-18.1-18.3v-26.9l-4.4-14.6c27.1,0.1,65.2,0.6,70.6,0l-4.4,14.6v26.9
	C683.8,469.8,675.7,478,665.7,478z"/>
<path class="st1" d="M665.7,478h-25.6c-10,0-18.1-8.2-18.1-18.3v-26.9l-4.4-14.6c27.1,0.1,65.2,0.6,70.6,0l-4.4,14.6v26.9
	C683.8,469.8,675.7,478,665.7,478z"/>
<path class="st1" d="M652.9,380v37"/>
<path class="st0" d="M614.8,381.4l8.3,38.5L614.8,381.4z"/>
<path class="st1" d="M614.8,381.4l8.3,38.5"/>
<path class="st0" d="M693.1,381.4l-9.3,38.5L693.1,381.4z"/>
<path class="st1" d="M693.1,381.4l-9.3,38.5"/>
<path class="st0" d="M673.8,381.1l-6.7,38L673.8,381.1z"/>
<path class="st1" d="M673.8,381.1l-6.7,38"/>
<path class="st0" d="M632.4,381.1l6.7,38L632.4,381.1z"/>
<path class="st1" d="M632.4,381.1l6.7,38"/>
<path class="st1" d="M621.7,433.2h62"/>
<path class="st0" d="M806.8,188.3c0-85.3-68.3-154.4-152.5-154.4c-84.2,0-152.5,69.1-152.5,154.4c0,69.4,107.6,193.2,107.6,193.2
	h89.7C699.2,381.5,806.8,257.7,806.8,188.3z"/>
<path class="st1" d="M806.8,188.3c0-85.3-68.3-154.4-152.5-154.4c-84.2,0-152.5,69.1-152.5,154.4c0,69.4,107.6,193.2,107.6,193.2
	h89.7C699.2,381.5,806.8,257.7,806.8,188.3z"/>
<path class="st0" d="M751.5,188.3c0-85.3-43.5-154.4-97.2-154.4c-53.7,0-97.2,69.1-97.2,154.4c0,69.4,68.6,193.2,68.6,193.2h57.2
	C682.9,381.5,751.5,257.7,751.5,188.3z"/>
<path class="st1" d="M751.5,188.3c0-85.3-43.5-154.4-97.2-154.4c-53.7,0-97.2,69.1-97.2,154.4c0,69.4,68.6,193.2,68.6,193.2h57.2
	C682.9,381.5,751.5,257.7,751.5,188.3z"/>
<path class="st0" d="M687.9,188.3c0-85.3-15-154.4-33.5-154.4c-18.5,0-33.5,69.1-33.5,154.4c0,69.4,23.7,193.2,23.7,193.2h19.7
	C664.2,381.5,687.9,257.7,687.9,188.3z"/>
<path class="st1" d="M687.9,188.3c0-85.3-15-154.4-33.5-154.4c-18.5,0-33.5,69.1-33.5,154.4c0,69.4,23.7,193.2,23.7,193.2h19.7
	C664.2,381.5,687.9,257.7,687.9,188.3z"/>
<path class="st1" d="M516.6,365h-31c-0.3,0-0.5-0.2-0.5-0.5s0.2-0.5,0.5-0.5h31c0.3,0,0.5,0.2,0.5,0.5S516.8,365,516.6,365z"/>
<path class="st1" d="M256.6,261.8h-24.8c-0.3,0-0.5-0.2-0.5-0.5s0.2-0.5,0.5-0.5h24.8c0.3,0,0.5,0.2,0.5,0.5
	S256.8,261.8,256.6,261.8z"/>
<path class="st1" d="M63.8,413.5H39c-0.3,0-0.5-0.2-0.5-0.5s0.2-0.5,0.5-0.5h24.8c0.3,0,0.5,0.2,0.5,0.5S64,413.5,63.8,413.5z"/>
<path class="st0" d="M1267.6,96.5l127.6,0.5c10.3,0,14.8-13.3,6.4-19.3c-0.1-0.1-0.2-0.2-0.4-0.3c-12-8.3-27.8-7.6-27.8-7.6
	s-2.1-44.9-44.6-44.9c-30.1,0-38.1,35.7-38.1,35.7s-28.6-0.1-33.4,22.4C1255.8,90,1260.6,96.5,1267.6,96.5z"/>
<path class="st1" d="M1267.6,96.5l127.6,0.5c10.3,0,14.8-13.3,6.4-19.3c-0.1-0.1-0.2-0.2-0.4-0.3c-12-8.3-27.8-7.6-27.8-7.6
	s-2.1-44.9-44.6-44.9c-30.1,0-38.1,35.7-38.1,35.7s-28.6-0.1-33.4,22.4C1255.8,90,1260.6,96.5,1267.6,96.5z"/>
<path class="st1" d="M1363.6,111.8H1348c-0.3,0-0.5-0.2-0.5-0.5s0.2-0.5,0.5-0.5h15.6c0.3,0,0.5,0.2,0.5,0.5
	S1363.9,111.8,1363.6,111.8z"/>
<path class="st1" d="M430.2,233h-31.2c-0.3,0-0.5-0.2-0.5-0.5s0.2-0.5,0.5-0.5h31.2c0.3,0,0.5,0.2,0.5,0.5S430.5,233,430.2,233z"/>
<path class="st1" d="M361.8,315.5h-28.9c-0.3,0-0.5-0.2-0.5-0.5s0.2-0.5,0.5-0.5h28.9c0.3,0,0.5,0.2,0.5,0.5
	S362.1,315.5,361.8,315.5z"/>
<path class="st1" d="M306.1,315.5h-14.6c-0.3,0-0.5-0.2-0.5-0.5s0.2-0.5,0.5-0.5h14.6c0.3,0,0.5,0.2,0.5,0.5
	S306.4,315.5,306.1,315.5z"/>
<path class="st1" d="M1127.1,174.7h-45.6c-0.3,0-0.5-0.2-0.5-0.5s0.2-0.5,0.5-0.5h45.6c0.3,0,0.5,0.2,0.5,0.5
	S1127.4,174.7,1127.1,174.7z"/>
<path class="st1" d="M846.8,113.3H824c-0.3,0-0.5-0.2-0.5-0.5s0.2-0.5,0.5-0.5h22.8c0.3,0,0.5,0.2,0.5,0.5S847.1,113.3,846.8,113.3z
	"/>
</svg>
